PathFileType	3	(X/Y/Z)	C:\Users\koon_\Desktop\
DataRate	CameraRate	NumFrames	NumMarkers	Units	OrigDataRate	OrigDataStartFrame	OrigNumFrames
100.0	100.0	8	27	mm	100.0	566	4526	
Frame#	Time	GM:LFHD			GM:RFHD			GM:LBHD			GM:RBHD			GM:C7			GM:T10			GM:CLAV			GM:STRN			GM:RBAK			GM:LSHO			GM:LUPA			GM:LELB			GM:LFRA			GM:LWRA			GM:LWRB			GM:LFIN			GM:RSHO			GM:RUPA			GM:RELB			GM:RFRA			GM:RWRA			GM:RWRB			GM:RFIN			GM:LASI			GM:RASI			GM:LPSI			GM:RPSI			
		X1	Y1	Z1	X2	Y2	Z2	X3	Y3	Z3	X4	Y4	Z4	X5	Y5	Z5	X6	Y6	Z6	X7	Y7	Z7	X8	Y8	Z8	X9	Y9	Z9	X10	Y10	Z10	X11	Y11	Z11	X12	Y12	Z12	X13	Y13	Z13	X14	Y14	Z14	X15	Y15	Z15	X16	Y16	Z16	X17	Y17	Z17	X18	Y18	Z18	X19	Y19	Z19	X20	Y20	Z20	X21	Y21	Z21	X22	Y22	Z22	X23	Y23	Z23	X24	Y24	Z24	X25	Y25	Z25	X26	Y26	Z26	X27	Y27	Z27	
566	5.65	102.17505	1586.9928	-85.294937	-51.027187	1592.8615	-73.345047	91.668007	1588.5758	-218.07423	-71.420532	1595.4691	-188.5202	10.620894	1416.7341	-274.11475	5.3369093	1218.9694	-309.5434	16.770645	1366.7932	-118.92774	10.611757	1225.6129	-62.44717	-84.242821	1296.0847	-309.08282	180.1342	1388.6537	-208.44725	245.0571	1283.1194	-193.72694	275.1731	1070.8096	-213.3726	221.84557	968.25256	-118.23444	213.38232	900.51483	-88.530991	264.55359	876.79834	-122.23631	214.92418	813.5	-58.239258	-114.70079	1432.4982	-243.21051	-249.52921	1518.9688	-200.45512	-330.00012	1582.391	-153.20937	-248.30869	1542.3655	-205.15553	-135.02966	1540.6927	-236.62827	-133.43599	1601.8456	-236.69743	-82.017303	1546.3953	-297.60864	140.74751	901.77203	-91.158264	-151.85217	910.02704	-93.071892	74.016647	945.07471	-302.64655	-89.082298	932.68927	-303.30515
567	5.66	102.33984	1586.8826	-85.495468	-50.871979	1592.8262	-73.505562	91.79538	1588.5083	-218.25377	-70.688057	1595.2567	-188.83495	10.678913	1416.7327	-274.30618	5.4746113	1218.9497	-309.71268	16.724459	1366.7493	-119.11362	10.538967	1225.593	-62.633717	-84.070045	1296.0297	-309.414	180.17812	1388.5839	-208.5015	245.16586	1283.1285	-193.56303	275.33081	1070.7909	-213.1122	221.88181	968.31616	-118.03809	214.22015	901.17395	-86.835007	264.59885	876.83716	-121.88686	214.92363	813.58545	-58.027294	-114.8643	1432.2196	-243.27461	-249.28995	1518.8705	-200.93069	-329.54559	1582.684	-153.99068	-248.05109	1541.1968	-205.57274	-134.46986	1536.673	-235.5192	-132.44109	1598.2004	-236.92067	-81.328979	1540.8761	-296.46378	140.79655	901.87311	-91.190735	-151.83707	910.05963	-93.307663	74.206802	944.98688	-302.75021	-88.866005	932.67059	-303.55093
568	5.67	102.48271	1586.764	-85.670158	-50.698551	1592.8639	-73.642365	91.919029	1588.4152	-218.43037	-70.379974	1594.8969	-189.17377	10.737478	1416.7312	-274.49069	5.5917339	1218.9352	-309.94217	16.764088	1366.7408	-119.2608	10.461713	1225.5264	-62.81913	-83.990173	1296.0372	-309.68106	180.23224	1388.5828	-208.5266	245.13448	1283.0846	-193.5255	275.50092	1070.7863	-212.84483	221.84917	968.29559	-117.88183	214.16086	901.0636	-86.723274	264.66281	876.8324	-121.60061	213.61719	813.2077	-58.714432	-114.58938	1432.3564	-243.70319	-249.1041	1518.7184	-201.48051	-329.12796	1582.8337	-154.59933	-247.70543	1540.1251	-205.98242	-134.17592	1533.0452	-234.25854	-131.65714	1594.4652	-236.87257	-80.99501	1535.6335	-295.2717	140.85489	902.05371	-91.176071	-151.75198	910.07703	-93.527191	74.422409	944.95892	-302.87857	-88.634003	932.6391	-303.78958
569	5.68	102.62144	1586.6738	-85.824692	-50.567158	1592.9373	-73.822945	92.028061	1588.3625	-218.63129	-69.969933	1595.1251	-189.13269	10.766998	1416.7141	-274.72217	5.7314129	1218.9642	-310.12402	16.7218	1366.6967	-119.47438	10.406076	1225.4586	-63.039989	-83.879524	1296.061	-309.95511	180.2688	1388.5488	-208.5997	245.22655	1283.1207	-193.3896	275.62958	1070.7976	-212.64371	221.90843	968.31744	-117.69611	213.41547	900.59052	-87.791794	264.76712	876.88855	-121.33672	213.56267	813.19476	-58.621727	-114.52464	1432.3007	-243.8636	-248.98671	1518.5444	-201.93852	-328.72891	1583.0148	-155.24509	-247.42577	1539.0771	-206.36269	-134.50114	1530.5555	-233.51157	-130.89684	1590.9641	-236.80614	-80.950783	1530.5356	-294.07336	140.90707	902.16962	-91.142426	-151.69945	910.12061	-93.792191	74.654434	944.87854	-303.03717	-88.425758	932.60828	-304.01263
570	5.69	102.69601	1586.6602	-85.974922	-50.452682	1592.9603	-73.96328	92.155418	1588.3167	-218.75032	-69.582092	1595.1079	-189.36107	10.836679	1416.7114	-274.89783	5.8234825	1218.9644	-310.28787	16.724266	1366.6898	-119.58009	10.332325	1225.3467	-63.298195	-83.784355	1296.0488	-310.23639	180.32042	1388.5519	-208.67509	245.21237	1283.1049	-193.34721	275.76895	1070.8396	-212.46083	221.83224	968.35547	-117.53925	213.43544	900.55127	-87.634521	264.85599	876.9209	-121.02904	213.55258	813.15454	-58.510269	-114.43717	1432.2091	-244.08377	-248.93318	1518.2886	-202.42781	-328.40298	1583.0985	-155.69531	-247.30704	1537.8422	-206.76727	-134.75577	1527.2716	-233.7726	-130.17267	1587.7137	-236.81755	-80.865097	1525.4603	-293.03159	140.94882	902.28552	-91.141693	-151.64299	910.13336	-94.099602	74.87796	944.81976	-303.1145	-88.18663	932.57635	-304.26044
571	5.7	102.72144	1586.6296	-86.099724	-50.414581	1592.989	-74.175797	92.223793	1588.2516	-218.94124	-69.584824	1595.3867	-189.68797	10.939703	1416.6896	-275.03201	5.9220243	1218.9438	-310.45752	16.691196	1366.6343	-119.7269	10.308916	1225.217	-63.469963	-83.677635	1296.0177	-310.4321	180.36577	1388.5391	-208.76666	245.2133	1283.0985	-193.32674	275.89798	1070.8542	-212.26443	222.02782	968.37048	-117.32793	213.54164	900.64233	-87.433746	264.92471	876.96924	-120.84242	213.55008	813.16724	-58.407486	-114.4139	1432.1426	-244.26085	-249.00803	1518.219	-202.8432	-328.14124	1583.0626	-156.07176	-247.31747	1536.6426	-207.00615	-134.97668	1523.8014	-232.82698	-129.77223	1584.3287	-236.66681	-81.247627	1520.839	-292.11615	140.97643	902.37616	-91.138199	-151.58585	910.16418	-94.383049	75.119446	944.78436	-303.17877	-87.895721	932.53131	-304.53476
572	5.71	102.73753	1586.6689	-86.277809	-50.420517	1593.0624	-74.393059	92.321754	1588.2319	-219.08588	-69.531059	1595.1759	-189.80164	11.019263	1416.689	-275.20673	6.0450349	1218.9541	-310.69659	16.663036	1366.6042	-119.89095	10.271423	1225.1473	-63.726418	-83.584686	1296.0206	-310.6795	180.43228	1388.5499	-208.81604	245.29233	1283.1294	-193.28833	275.97473	1070.8618	-212.16866	222.03615	968.41357	-117.23203	213.56664	900.69482	-87.291344	265.0589	877.03271	-120.62545	213.55769	813.16125	-58.299549	-114.43256	1432.137	-244.38109	-249.19005	1518.1097	-203.21886	-327.99774	1582.9373	-156.28952	-247.47325	1535.8152	-207.79207	-135.61812	1521	-232.3064	-129.56119	1581.1542	-236.62354	-81.840454	1516.3625	-291.26865	141.06421	902.46857	-91.185806	-151.54366	910.18042	-94.666145	75.374596	944.77087	-303.25507	-87.679825	932.45319	-304.81735
573	5.72	102.76638	1586.7004	-86.366508	-50.321781	1593.0909	-74.587814	92.406364	1588.2252	-219.1907	-69.416283	1595.1129	-190.0119	11.151407	1416.6925	-275.38873	6.2702603	1219.012	-310.93051	16.747944	1366.5688	-120.04154	10.270342	1225.0746	-63.938835	-83.50547	1296.041	-310.86435	180.53194	1388.5631	-208.90047	245.31616	1283.1213	-193.30058	276.08582	1070.8638	-212.0715	222.08336	968.49097	-117.16079	213.75858	900.86249	-86.857323	265.10016	877.08533	-120.4548	213.53156	813.16022	-58.280289	-114.48979	1432.089	-244.49951	-249.52908	1517.8702	-203.49715	-327.9281	1582.7031	-156.22308	-247.73416	1534.6993	-207.785	-136.33395	1517.9377	-231.9193	-129.65089	1578.1069	-236.65793	-82.753654	1512.1648	-290.82086	141.11923	902.49438	-91.232666	-151.47481	910.15167	-94.925613	75.58699	944.74609	-303.38239	-87.407036	932.39099	-305.08612
